<svg xmlns="http://www.w3.org/2000/svg" viewBox="0 0 256 256">
  <rect width="256" height="256" fill="#0A2463"/>
  <path d="M128 60 C160 60 180 75 180 95 C180 110 170 120 155 125 C175 130 190 145 190 165 C190 190 165 210 128 210 C95 210 70 195 65 170 L95 165 C98 180 110 190 128 190 C145 190 160 180 160 165 C160 150 145 140 125 140 L125 120 C143 120 155 112 155 95 C155 82 145 75 128 75 C112 75 102 82 98 95 L68 88 C73 68 95 60 128 60 Z" fill="#FFD700"/>
  <circle cx="210" cy="46" r="8" fill="#FFD700"/>
  <circle cx="46" cy="210" r="8" fill="#FFD700"/>
</svg>